/* XPM */
static char *_f853d7c1d304beaffdb92f5cca49c33a31uxxbn3rSLXBKa[] = {
/* columns rows colors chars-per-pixel */
"64 64 157 2 ",
"   c #3F000D",
".  c #42000D",
"X  c #670D35",
"o  c #6B0E35",
"O  c #710F36",
"+  c #6A1137",
"@  c #002C48",
"#  c #003048",
"$  c #253765",
"%  c #293D65",
"&  c #005252",
"*  c #005B53",
"=  c #03535A",
"-  c #006054",
";  c #08596A",
":  c #33496B",
">  c #3D4D74",
",  c #455977",
"<  c #4E6476",
"1  c #506777",
"2  c #546C77",
"3  c #577077",
"4  c #A77639",
"5  c #CE1E63",
"6  c #C32267",
"7  c #D22263",
"8  c #98715D",
"9  c #B66649",
"0  c #B7694B",
"q  c #B86D4D",
"w  c #B9724F",
"e  c #B06C51",
"r  c #BA7450",
"t  c #847F78",
"y  c #2C9E53",
"u  c #2FA154",
"i  c #32A454",
"p  c #32A75A",
"a  c #2A9D64",
"s  c #56827F",
"d  c #B2873A",
"f  c #BF885A",
"g  c #ACB14C",
"h  c #8D9777",
"j  c #B09269",
"k  c #C08C5D",
"l  c #C29360",
"z  c #2067BF",
"x  c #2068BF",
"c  c #435E83",
"v  c #4A6381",
"b  c #1F73C6",
"n  c #1F77C9",
"m  c #1F7DCC",
"M  c #2067C0",
"N  c #206CC2",
"B  c #2073C6",
"V  c #2076C8",
"C  c #207CCB",
"Z  c #CE5082",
"A  c #D05483",
"S  c #4A878E",
"D  c #778483",
"F  c #508EA8",
"G  c #5394A8",
"H  c #5897A9",
"J  c #5D9BA9",
"K  c #629EA9",
"L  c #6AA4AB",
"P  c #70A7AA",
"I  c #75ABAB",
"U  c #70ABB6",
"Y  c #1F81CE",
"T  c #1F85D1",
"R  c #1F8BD3",
"E  c #1F92D6",
"W  c #1F94D9",
"Q  c #1E9CDC",
"!  c #2082CE",
"~  c #2086D0",
"^  c #2089D2",
"/  c #2096D9",
"(  c #1FA1DE",
")  c #1EA5E1",
"_  c #1DACE4",
"`  c #1DB2E7",
"'  c #1DB5E9",
"]  c #1CBBEC",
"[  c #1EBFF0",
"{  c #1BC0EF",
"}  c #1BC4F1",
"|  c #17CFF6",
" . c #1BCBF4",
".. c #17D1F6",
"X. c #19D1F6",
"o. c #16D5F9",
"O. c #1BD4F9",
"+. c #15DCFB",
"@. c #1BDBFC",
"#. c #20CDF6",
"$. c #21D5FA",
"%. c #24D8FB",
"&. c #0FE6FF",
"*. c #13E4FE",
"=. c #1BE4FF",
"-. c #12E8FF",
";. c #1CE9FF",
":. c #24E3FF",
">. c #2CE2FE",
",. c #24EAFF",
"<. c #2AEBFF",
"1. c #34E5FE",
"2. c #38E6FE",
"3. c #35ECFF",
"4. c #3BECFF",
"5. c #44EEFF",
"6. c #4BEEFF",
"7. c #53EEFE",
"8. c #5EEFFE",
"9. c #4CF0FF",
"0. c #54F0FF",
"q. c #5CF1FF",
"w. c #61EFFE",
"e. c #68EFFE",
"r. c #64F2FF",
"t. c #6AF2FF",
"y. c #6CF3FF",
"u. c #6EF2FF",
"i. c #71F0FE",
"p. c #71F3FF",
"a. c #75F0FE",
"s. c #75F3FF",
"d. c #77F3FF",
"f. c #73F4FF",
"g. c #78F3FF",
"h. c #7AF2FE",
"j. c #7CF3FF",
"k. c #7EF2FE",
"l. c #7AF4FF",
"z. c #7DF4FF",
"x. c #8ABEC4",
"c. c #96C4C3",
"v. c #94EEFF",
"b. c #82F2FE",
"n. c #86F2FE",
"m. c #81F4FF",
"M. c #82F4FF",
"N. c #86F4FF",
"B. c #8AF2FE",
"V. c #8CF1FE",
"C. c #8DF3FF",
"Z. c #8EF3FE",
"A. c #89F4FF",
"S. c #8AF4FF",
"D. c #8EF4FF",
"F. c #EDFCFF",
"G. c #F4FDFF",
/* pixels */
"D.D.D.D.D.D.D.D.D.D.D.D.D.D.S.D.D.D.S.D.D.S.D.N.D.D.N.D.D.S.D.D.D.D.S.D.D.D.D.D.D.V.D.B.V.D.D.D.D.D.B.D.Z.Z.Z.Z.Z.Z.Z.Z.Z.V.Z.V.",
"D.D.D.D.D.D.D.D.S.S.S.S.S.D.D.S.D.D.D.N.N.D.S.D.S.D.D.S.S.S.S.S.S.S.D.D.S.D.D.S.D.B.D.D.D.D.D.V.D.D.D.D.Z.Z.Z.Z.Z.Z.Z.Z.V.Z.Z.Z.",
"D.S.D.S.S.S.S.S.S.S.S.S.S.S.S.S.S.N.S.N.S.S.D.N.N.D.N.S.S.S.S.S.S.D.S.S.S.D.S.D.S.D.D.B.V.D.S.D.D.V.v.D.D.Z.D.D.Z.Z.Z.Z.Z.V.V.V.",
"S.S.N.S.N.S.S.N.S.S.N.S.N.S.N.N.N.S.N.N.S.N.N.S.S.S.N.S.S.N.S.S.S.S.S.S.S.S.D.F.v.v.V.D.D.V.V.D.D.B.D.V.V.D.V.V.Z.Z.Z.Z.V.Z.V.V.",
"S.N.N.N.N.N.N.N.N.N.N.N.N.N.N.N.N.N.N.N.N.N.N.N.N.N.N.N.N.N.N.N.N.N.N.N.N.N.F.G.v.v.v.V.D.V.V.V.B.V.V.D.D.B.V.S.V.V.V.V.Z.n.V.V.",
"N.N.N.N.N.N.N.M.M.N.M.N.M.M.M.M.M.M.M.M.z.z.M.M.M.z.z.M.z.M.M.M.M.M.M.N.M.N.v.v.v.v.v.n.b.n.n.n.n.D.n.S.n.V.n.D.V.n.V.V.B.n.V.n.",
"N.M.M.M.M.M.z.M.z.M.z.z.z.z.z.z.z.z.z.l.z.z.l.z.z.z.z.z.z.z.l.j.j.j.j.j.j.j.v.v.v.v.v.j.z.b.b.b.M.b.N.n.n.n.n.n.n.n.n.V.n.n.n.n.",
"z.z.j.j.g.l.z.l.l.l.l.l.l.g.g.g.l.f.l.l.l.f.l.l.s.s.s.l.s.s.l.s.s.g.g.g.l.g.g.v.v.v.g.g.g.l.j.g.g.j.j.j.z.z.b.b.b.b.b.n.b.b.b.b.",
"l.l.l.f.l.f.f.f.s.s.s.s.s.s.s.s.f.f.f.f.f.f.f.f.f.f.f.f.f.f.f.f.s.s.s.s.s.g.p.s.s.a.s.g.s.s.g.g.g.a.h.h.k.k.a.k.b.j.k.k.k.b.k.k.",
"f.f.f.s.f.f.f.f.p.p.p.p.p.p.p.p.f.f.f.f.f.f.y.f.f.y.f.f.f.f.f.f.p.s.p.p.s.p.p.p.p.g.p.i.p.s.p.s.a.s.a.a.a.a.a.a.a.s.j.g.g.k.k.a.",
"f.f.y.y.y.y.y.y.y.y.y.p.y.t.t.t.t.t.t.t.t.t.t.t.t.t.t.t.t.y.t.t.t.y.y.p.p.y.p.y.y.y.y.i.p.y.y.p.i.i.i.i.i.a.i.a.a.a.a.a.a.g.a.a.",
"y.t.t.t.y.r.y.r.r.r.r.r.r.r.r.r.r.r.r.r.r.q.r.r.r.r.r.r.r.r.r.r.r.r.r.r.r.r.r.r.e.t.r.e.r.t.e.t.y.y.i.e.i.i.i.e.i.i.i.i.i.e.a.e.",
"r.r.r.r.r.r.r.r.q.r.q.r.q.q.q.r.q.q.q.q.q.q.q.q.q.q.q.q.q.q.q.q.q.q.q.q.q.q.q.w.8.8.q.r.w.8.r.q.r.w.w.w.e.e.e.e.e.e.e.e.e.e.e.e.",
"q.r.q.q.q.q.q.q.q.q.q.q.q.q.q.q.0.q.q.q.q.q.0.0.0.q.0.q.q.0.0.q.7.q.q.0.0.q.0.q.q.7.0.0.0.q.q.0.q.q.q.q.8.8.8.8.8.8.8.8.w.w.8.8.",
"q.0.q.0.0.0.q.0.q.0.0.0.0.0.7.0.0.0.0.0.0.0.0.0.0.0.0.0.0.0.9.0.0.0.0.0.0.0.7.7.7.0.7.7.7.0.7.7.0.7.7.0.7.7.7.7.8.7.7.8.8.7.7.7.",
"9.9.0.0.0.9.0.9.0.0.0.9.0.0.0.9.0.9.0.9.0.9.0.9.0.9.0.9.9.0.9.9.9.0.9.9.9.7.6.9.7.6.6.0.6.7.6.0.7.9.7.6.6.7.6.7.7.6.6.7.6.6.6.7.",
"9.9.9.9.9.9.9.9.9.9.9.9.9.9.9.9.9.5.9.9.9.9.9.9.9.9.9.9.9.9.9.9.9.9.9.6.6.6.6.6.6.6.6.6.6.6.6.6.9.9.9.6.6.6.6.6.6.6.6.2.6.7.6.6.",
"5.4.5.5.4.5.5.4.5.5.5.9.5.5.5.5.5.5.5.9.5.5.5.5.5.5.9.5.5.5.5.9.5.9.5.6.6.6.6.6.6.6.5.9.5.6.6.5.5.5.5.5.5.5.5.5.5.5.6.6.2.2.2.2.",
"4.3.4.3.4.4.4.4.4.4.5.5.4.5.5.5.5.9.4.5.5.9.5.5.5.5.5.5.5.5.5.9.5.5.5.4.4.5.5.4.5.5.5.5.5.5.4.5.4.4.5.4.4.5.5.5.2.6.2.2.2.2.2.2.",
"3.3.3.3.3.3.3.3.3.3.3.3.3.4.3.4.4.4.4.4.3.3.4.3.4.4.4.4.3.3.3.3.3.3.3.3.3.3.3.3.3.3.3.4.3.1.3.3.3.3.<.<.2.1.1.2.2.2.2.2.2.1.1.1.",
"<.<.<.<.<.<.<.<.,.<.,.,.<.<.<.<.<.<.<.<.<.<.,.<.,.<.,.,.,.,.,.,.,.,.,.,.,.;.,.,.,.,.,.,.,.,.,.;.;.;.;.-.;.<.>.1.1.>.>.1.1.1.>.>.",
">.,.:.:.,.,.;.,.:.;.;.,.;.;.;.=.;.;.;.;.;.;.;.;.;.;.;.-.-.;.-.-.-.-.-.-.-.-.-.-.-.-.-.-.-.-.-.-.-.-.+.;.%.>.>.>.>.>.>.>.#.1.1.%.",
":.:.=.:.;.=.;.;.;.=.=.=.;.=.&.*.;.-.-.-.;.-.-.-.-.*.-.*.-.-.&.*.-.&.-.&.-.-.&.&.&.&.&.&.&.&.-.-.+.-.;.;.,.,.%.%.%.>.:.%.>.:.:.%.",
"=.=.=.=.=.=.=.=.*.*.*.-.=.-.+.&.-.=.=.-.-.-.-.-.*.*.*.*.*.*.*.&.*.-.-.-.+.+.*.*.*.+.&.&.*.*.+.;.;.X.;.%.%.%.:.:.:.%.<.%.%.%.:.%.",
"@.=.@.*.*.+.+.*.+.+.*.+.&.+.&.&.+.*.+.&.&.+.&.&.+.&.+.&.*.*.+.&.+.*.=.+.=.*.*.+.+.+.-.+.+.=.@.@.%.=.@.:.%.:.%.%.%.%.>.%.%.:.%.:.",
"@.@.+.@.+.+.+.+.+.+.+.+.+.+.o.+.+.+.+.+.+.+.o.+.+.+.+.o.+.+.+.o.+.o.+.+.O.O.@.+.+.=.+.@.X.@.@.@.@.%.@.%.%.%.%.%.%.%.%.%.%.%.%.O.",
"@.@.+.+.+.o.o.o.o.+.+.o.+.+.o.o.o.+.o.o.o.+.+.o.o.o.o.o.+.o.o.+.o.+.O.+.O.+.O.O.+.X.X.%.+.%.@.%.O.O.$.$.O.O.%.%.@.%.$.%.$.%.O.O.",
"O.O.o.o.o.+.o.o.o.o.o.o.o.o.o.o.o.o.o.o.o.o.o.o.o.o.o.o.o.o.o...X.....O.X.O.X.X.X.@.X.X.X.X.X.X.O.$.X.$.X.$.#.%.X.#.X.#.#.$.O.%.",
"O.o.o.o.o.o.o.o.o.o.| o.| o.o.| o.o.| | o.| | | o.o.| | | o.| ....O.O.O.X.X.X.X.#.X.#.X. .#.#.#. .#.#.#.#.#.#.#.#.#.#.#.#.#.#.X.",
"X.X.| | | | | o.| o.| | | | | | o.| | | | | | | | | | | | | | |  . . . . . . . . . . . . .#.{ #. . .} } #.{ #.{ #.#.{ #.#.#.#. .",
" .X.| |  .| | |  . . .| | | | | | |  .| | | } | } | } | } |  .|  .} }  . .} } } #.} { #.{ { } #.} } } } { #.] #.#.] { #.} } { { ",
" .} }  .}  .} } }  .}  .}  .] } } } } } ]  .] } { } } { { { { { } { } } } } } { } { { { { { { { ] ] { { [ } ' ` [ ` ] } { } { { ",
"{ { { { { { { { { { { { { ] { { ] ] ] ] ] ] ] ] ] ] ] ] ] ] ] [ ] ] ] ] ] ] ] ] ] ] ' ' ' ' ' ' ' ' ' ' ' ' ' ' ' ' } ' ' ] ' [ ",
"{ ] ] ] ] ] { { { ] ] ] ] ] ] ] ] ] ] ] ] ] ] ] ] ' ] ] ] ] ' ' ] ] ' ' ] ' ' ' ' ' ' ' ' ' _ ' ' _ _ _ ` _ _ _ _ _ _ _ ` ` ` ` ",
"] ` ] ` ] ` ` ` ' ' ` ' ' ' ' ' ' ' ' ' ` ` ' ' ` ` ' ` _ ` ' ' ` ` ` ` ` ` ` ` _ ` _ _ _ _ _ _ _ _ _ ) ) ) ) ) ) ) _ _ _ _ _ _ ",
"` ` _ ` ` ` ` ` _ ` ` _ ` _ _ _ _ _ _ _ _ _ _ _ _ _ _ _ _ _ _ _ _ _ _ _ _ _ _ _ _ ) _ ) ) ) ( ( ( ( ( ( ( ( ( ( ( ( ( ( ( ) ) ) ",
") ) _ ) _ ) _ ) _ ) _ ) ) _ ) ) ) ) _ ) ) ) ) ) ) ) ) ) ) ) ) ) ) ) ) ) ( ) ) ) ) ) Q ( ( ( Q ( ( / / / Q / / Q / / ( / ( ( ( ( ",
") ) ) ) ) ) ) Q ) ) ) ) ) ) ) ( ) ) ) ) ) ) ) ) ) ) ) ) ( ) ) ) ) ( ) ) Q ( ( Q Q Q Q Q Q Q / Q Q / / / / / W W / / / / / / ( / ",
"Q Q ) Q ) Q ) Q Q Q Q Q Q Q ( Q Q Q Q Q Q Q Q Q ) Q Q Q ( ( Q Q Q ( Q Q Q Q Q Q W Q W W / W E E / / / / / / R E / / / ^ / / / / ",
"Q W Q Q E Q Q Q Q Q Q Q Q W Q / Q Q W Q Q W Q Q W W Q Q W Q W W W W Q W W W W W W / E / W R E E ^ / ^ ^ ^ ^ R R ^ ^ ^ ^ ^ ^ ^ ^ ",
"E E W W W W W W Q E E / p E p / W W W E E E E E W W W W W R W W W W R W E E E E E E R E R R E R R R ^ ~ ^ ~ ~ ! ~ ~ ~ ~ ~ ~ ~ ~ ",
"R R R R E E E R R R E E E * / i W R R E E R R E R R R R W R R R R R R R R R R R T R T R R R R T R R T ~ ~ ~ ~ ! ~ ~ d ~ ~ ~ ! ~ ",
"R R R R R T R T R R ^ ^ i - R i a R R R R R R R R R R T T R R R R R R R R R T T R T T R T T ~ ~ T T I I D P c.c.I ~ d ~ ~ ! ! ! ",
"Y Y Y Y T T T T ~ ^ ^ i R * - i a y T T T T T T T T T T R T T T T T T T T T T ~ T T R m T ~ ~ ~ ~ c.I S I I I 3 I P d C ! ! ! C ",
"Y Y Y Y Y Y Y Y T T T i - * * i u y T T T T T T Y Y T T ! ! ! ! m T m ~ T m m ~ m m m ~ m m C ! I I I s I I P 2 1 L 4 v K C g C ",
"n n n Y m m m Y C ! i i - * i p u T m m m m m m m m m m m C C C m m C C m C C C m m n n C C V 3 2 I 3 3 3 2 1 1 1 , , G H B g V ",
"n n n n n * n n n C i i * * y y m m n m m n m n C C V V V V 7 V n V 7 V V V V B V B B B V V U 2 2 3 3 2 1 1 < , , c H : $ N 4 N ",
"b n n b b b * n b i i i * u y n n n n n b n b n B B V B B V B 7 B 5 B B B 5 B B B B B N B , 1 1 : P L L L , % % % H , F F 4 N N ",
"b b b b B B & * # i i i # y y @ N N & N N B N N B N N 7 N 7 B 7 N 7 . N 5 N N 5 N N N N L x.x.: : L K K J G G G F F , F G G x N ",
"N N b N N B x * y y y y @ y y y @ x N & N N N N N N N N 7 O O O . X X X N 5 N N 7 x N x , J H J , % % $ $ G G G , c G G G F z z ",
"B x x x N N x & y y y y @ @ y y y @ & = N N M N M N 7 N x . + + z X z X   X 7 5 x x x U G $ % % H H G , > > > G F G > > > G $ z ",
"x x B x N N x & # y a y y @ @ y y @ & N z x z z z M M 7 o O z Z x o X 5 Z   . z z x x U G G G > > > F F > $ $ G F F > > > F $ z ",
"x x N N x x ; = @ y y y a @ @ y y y G G % x x x x x x 5 x A 5 . X X .   . . 9 0 0 0 e > > > 5 > > > 5 , : $ $ 5 $ $ > > G > > z ",
"0 0 0 0 0 0 0 0 + 9 5 0 9 y @ y y > > > $ x x x z z z z X .     . .     . 0 0 0 0 0 0 0 5 $ $ 5 s 5 $ 5 , 5 > o > 5 > F G > > 0 ",
"0 0 0 l l l l l X l X 5 5 0 9 9 0 0 0 0 9 0 0 0 z x z q 0 0 0 0 0 0 0 0 0 0 l 0 0 0 0 5 0 0 5 9 . 7 9 7 5 j 5 t > > 7 , > > > q ",
"0 0 l l l l l X X . X l 0 0 0 0 l l l l l f 0 0 0 0 0 0 0 0 0 0 0 0 0 0 0 l l l l j 5 5 0 . 5 l . . l q 5 k 6 k 5 6 S S S 8 0 0 ",
"0 l h h h l l X     l l l 0 0 0 f l 0 0 l l l l l l l l l l l q l l l l l l l l j l w q 7 9 X l l X l 0 X   X q 5 X   5 f f w q ",
"l l j 5 l + l X Z l l 5 l l 0 0 0 l l 0 0 l l l l l l l f l l l l l l l l q l l 7 f l + 5 . X X X X l   X j X X X X X X 7 5 f 0 ",
"l 5 5 X l o l   X l X l 5 5 l l 0 0 0 0 l l l l q l l l l 0 l l l l l l l l w q f 7 l l X X X l X l X X X l X X X X   X l l l r ",
"l l l X . o X     X Z Z l l l l l l l l l l l l l l l l l l l l l l l l l l l l 5 5 X l   l X X X X X l X X X X X     9 q l l l ",
"l l l l     X     X l l l 5 l l l l l l l l l l l l l l l l l l l l l l l 7 5 l l l X X   l X   X X X Z   X   X X Z   l 5 j l l ",
"l l 5 l l Z X   X l X X 5 l l q l l l l q l l l l l l l l l l 0 q l l l l l l 5 X l   X X X X   X     Z Z   X X   X   X f 7 7 l ",
"5 5 l X l X     X       l q l l l l l l l w l l l l l l l l l l l l l q l l l X Z X X     X Z X X   X   7   X l     X Z Z l l l ",
"l l Z Z X     X X   l l 5 l l l l l l l l l l l l l l l l l l l l l l l l l 5 l 5 l X X   X 5   X l X   X     X     + l l l 7 l "
};
