/* XPM */
static char *result[] = {
/* columns rows colors chars-per-pixel */
"64 64 96 2 ",
"   c #7D1727",
".  c #106067",
"X  c #AE2F53",
"o  c #199B73",
"O  c #5FD874",
"+  c #5BD97F",
"@  c #DEB757",
"#  c #DFB67B",
"$  c #EBAF68",
"%  c #EBB069",
"&  c #ECB069",
"*  c #ECB06A",
"=  c #ECB16B",
"-  c #ECB26C",
";  c #EDB36D",
":  c #EDB46D",
">  c #EDB56E",
",  c #EDB66E",
"<  c #EEB870",
"1  c #EEB970",
"2  c #EEB971",
"3  c #F2C579",
"4  c #F3CB7D",
"5  c #F4CC7E",
"6  c #F4CE7F",
"7  c #E3E76B",
"8  c #547287",
"9  c #5F7D8C",
"0  c #FF4A84",
"q  c #7A9697",
"w  c #59D984",
"e  c #2DDFFD",
"r  c #31DFFC",
"t  c #0AE7FF",
"y  c #0CE7FF",
"u  c #0DE7FF",
"i  c #07E8FF",
"p  c #08E8FF",
"a  c #09E8FF",
"s  c #0BE8FF",
"d  c #10E6FF",
"f  c #15E5FF",
"g  c #1CE3FF",
"h  c #1AE4FF",
"j  c #10E9FF",
"k  c #15E9FF",
"l  c #24E1FF",
"z  c #25E1FF",
"x  c #27E0FF",
"c  c #26E1FF",
"v  c #27E1FF",
"b  c #24E2FF",
"n  c #26E2FF",
"m  c #28E0FF",
"M  c #29E0FF",
"N  c #28E1FF",
"B  c #21EAFF",
"V  c #7DEBFF",
"C  c #81A2A2",
"Z  c #82A3A3",
"A  c #83A5A5",
"S  c #84A8A7",
"D  c #D8B984",
"F  c #FF9AA6",
"G  c #F5D181",
"H  c #97C8C5",
"J  c #97D2CF",
"K  c #9BD1CD",
"L  c #99D1CE",
"P  c #9AD1CE",
"I  c #9BD1CE",
"U  c #9CD1CD",
"Y  c #92D2D1",
"T  c #91D2D2",
"R  c #92D2D2",
"E  c #94D2D0",
"W  c #ADE0DC",
"Q  c #86EDFF",
"!  c #8AEDFF",
"~  c #8DEEFF",
"^  c #90EEFF",
"/  c #93EEFF",
"(  c #94EEFF",
")  c #8FF4FF",
"_  c #90F4FF",
"`  c #91F4FF",
"'  c #B7E7E3",
"]  c #BCEAE6",
"[  c #BDECE8",
"{  c #DFFAFF",
"}  c #E2FAFF",
"|  c #ECFCFF",
" . c #EDFCFF",
".. c #F1FDFF",
"X. c #F2FDFF",
"o. c #F6FDFF",
/* pixels */
") ) ) ) ) ) ) ) ) ) ) ) ) ) ) ) ) ) ` ) ) ) ) ) ) ) ) ) ) ) ) ) ) ) ) ) ) ) ) ) ) ) ) ) ) ) ) ) ) ) ) ) ) ) ) ) ) ) ) ) ) ) ) ) ",
") ) ) ) ) ) ) ) ) ) ) ) ) ) ) ) ) ) ` ) _ ) ) ) ) ) ) ) ) ) ) ) ) ) ) ) ) ) ) ) ) ) ) ) ) ) ) ) ) ) ) ) ) ) ) ) ) ) ) ) ) ) ) ) ",
") ) ) ) ) ) ) ) ) ) ) ) ) ) ) ) ) ) ) ` ` ) ) ) ) ) ) ) ) ) ) ) ) ) ) ) ) ) ) ) ) ) ) ) ) ) ) ) ) ) ) ) ) ) ) ) ) ) ) ) ) ) ) ) ",
") ) ) ) ) ) ) ) ) ) ) ) ) ) ) ) ) ) ) ` ` ` ) ) ) ) ) ) ) ) ) ) ) ) ) ) ) ) ) ) ) ) ) ) ) ) ) ) ) ) ) ) ) ) ) ) ) ) ) ) ) ) ) ) ",
") ) ) ) ) ) ) ) ) ) ) ) ) ) ) ) ) ) ) ) ` ` ` ` ) ) ) ) ) ) ) ) ) ) ) ) ) ) ) ) ) ) ) ) ) ) ) ) ) ) ) ) ) ) ) ) ) ) ) ) ) ) ) ) ",
") ) ) ) ) ) ) ) ) ) ) ) ) ) ) ) ) ) ) ) ) ) ` ` ) ) ) ) ) ) ) ) ) ) ) ) ) ) ) ) ) ) ) ) ) ) ) ) ) ) ) ) ) ) ) ) ) ) ) ) ) ) ) ) ",
") ) ) ) ) ) ) ) ) ) ) ) ) ) ) ) ) ) ) ) ) ) ` ) _ ) ) ) ) ) ) ) ) ) ) ) ) ) ) ) ) ) ) ) ) ) ) ) ) ) ) ) ) ) ) ) ) ) ) ) ) ) ) ) ",
") ) ) ) ) ) ) ) ) ) ) ) ) ) ) ) ) ) ) ) ) ) ) ) ) ) ) ) ) ) ) ) ) ) ) ) ) ) ) ) ) ) ) ) ) ) ) ) ) ) ) ) ) ) ) ) ) ) ) ) ) ) i i ",
"i i i i i ) ) ) ) ) ) ) ) ) ) ) ) ) ) ) ) ) ) ) ) ) ) ) ) ) ) ) ) ) ) ) ) ) ) ) ) ) ) ) ) ) ) ) ) ) ) ) ) ) ) ) ) ) ) ) i i i i ",
"i i i i i i i i i i i ) ) ) ) ) ) ) ) ) ) ) ) ) ) ) ) ) ) ) ) ) ) ) ) ) ) ) ) ) ) ) ) ) ) ) ) ) ) ) ) ) ) ) ) ) ) ) i i i i B i ",
"i i i i i i i i i i i i ) ) ) ) ) ) ) ) ) ) ) ) ) ) ) ) ) ) ) ) ) ) ) ) ) ) ) ) ) ) ) ) ) ) ) ) ) ) ) ) ) ) ) ) ) i i i k i i i ",
"i i i i i i i i i i i i i ) ) ) ) ) ) ) ) ) ) ) ) ) ) ) ) ) ) ) ) ) ) ) ) ) ) ) ) ) ) ) ) ) ) ) ) ) ) ) ) ) i i i i j i i i i i ",
"i i i i i i i i i i i i i i i i i i i i i i i i i i i i i i i i i i i i i i i i i i i i i i i i i i i i i i i i i i i i i i i i ",
"i i i i i i i i i i i i i i i i i i i i i i i i i i i i i i i i i i i i i i i i i i i i i i i i i i i i i i i i i i i i i i i i ",
"i i i i i i i i i i i i i i i i i i i i i i i i i i i i i i i i i i i i i i i i i i i i i i i i i i i i s i i i i i i i i i i i ",
"i i i i i i i i i i i i i i i i i i i i i i i i i i i i i i i i i i i i i i i i p p i i i i i i i i i i i i i i i i i i i i i i ",
"i i i i i i i i i i i i i i i i i i i i i i i i i i i i i i i i i i i i i i i i i p i i i i i i i i i i i i i i i i a a p i i i ",
"i i i i i i i i i i i i i i i i i i i i i i i i i i i i i i i i i i i i i i i i i i i i i i i i i i i i i i i i t v M M g a i p ",
"i i i i i | Q i i i i i i i i i i i i i i i i i i i i i i i i i i i i i i i i i i i i i i i i i i i i i d h l M M M M M M M M M ",
"i i i i i ^ ~ i i i i i i i i i i i i i i i i i i i i i i i } ( i i i i i i i i i i i i i i i i i i i i M M x M M M M M M M M i ",
"i i i i i i i i i i i i i i i i i i i i i i i i i i i i i i ( ( i i i i i i i i i i i i i i i i i i i i i M M M M M M M M M M M ",
"M i i i i i i i i i i i i i i i i i i i i i i i i i i i i i i i i i i i i i i i i i i i i i i i i i i i M M M M M M M M M M M M ",
"M M i i i i i i i i i i i i i i i i i i i i i i i i i i i i i i i i i i i i i i i i i i i i i i i i M M M M M M M M M M M M M M ",
"M M M i i i i i i i i i i i i i i i i i i i i i i i i i i i i i i i i i i i i i i i i i i i i M M M M M M M M M M M M M M M M M ",
"M M M M i i i i i i i i i i i i i i i i i i i i X.( i i i i i i i i i i i i i i i i i i i M M M M M M M M M M M M M M M M M M M ",
"M M M M M i i i i i i i i i i i i i i i i i i i ( ( i i i i i i i i i i i i i i i i i M M M M M M M M M M M M M M M M M M M M M ",
"M M M M M M i i i i i i i i i i i i i i i i i i i i i i i i i i i i i i i i i i i i M M M M M M M M M M M M M M M M M M M M M M ",
"M M M M M M M i i i i i i i i i i i i i i i i i i i i i i i i i i i i i i i i i M M M M M M M M M M M M M M M M M M M M M M M c ",
"M M M M M M M M i i i i i i i i i i i i i i i i i i i i i i i i i i i i i i i M M M M M M M M M M M M M M M M M M M M M M M M z ",
"i M M M M M M M M M i i i i i i i i i i i i i i i i i i i i i i i i i i i i { V M M M M M M M M M M M M M M M M M M M M M M M c ",
"M f M M M M M M M M M M y y y i i i i u u u u u a i i i i i i i i i M M M M ! / M M M M M M M M M M M M M M M M M M M M M M x v ",
"M M M M M M M M M M M M M M i i i i i i i i i i i i i i n M M M M x ..( ( M M M M M M M M M M M M M M M M M M M M M M M M M m x ",
"M M M M M M M M M M M M M M M M M M M z c c c c v M M M N N M M M  .o.( ( ( m M M M M M M M M M M M M M M M M M M M M M M M M M ",
"b M M M M M M M M M b M M M M M M M M M M M M M M M M M M M M M M ( ( ( ( ( M M M M M M M M M M M M M M M M O M M M M M M M M M ",
"z z M M l M M M M M z z z z M M M M M M M v M M M M M M M N m M M ( ( ( ( ( M M M M M M M M M M M O O M M O M M M M M M M M M M ",
"z z z M M z M M M M M c c c c c M M v v v v v v N N N N N m m m m M ( ( ( M M M M M M M M M M M M M O M O O M M M . M M M M M M ",
"c c c c M c c c c M M M c c v v v v v v v v N N N N N N m m m m M M M M M M M M M M M M M M M M M M O M O O M M . M M M M M M M ",
"v v v v v v v v v v v v v v v v v v N N N N N N N N m m m m m M M M M M M M M M M M M M M M M M M O O M M O O M . M M M M M M M ",
"N N v v v v v N N N N N N N N N N N N N N N N m m m m m m M M M M M M M M M M M M M M M M M M . M O O O . M O o . . M M M M M M ",
"N N N N N N N N N N N N N N N m m m m m m m m m M M M M M M M M M M M M M M M M M M M M M M M M . O O O M . O O o . M M M M M M ",
"m m m m m m m m m m m m O m O M M M M M M M M M M M M M M M M M M M M M M M M M M M M M M M o o . O o O O . o O o . . M M M M M ",
"M 7 M M M M M M M M M M M o M O M M M M M M M M M M M M M M M M M M M M M M M M M M M M M M M o o o o O O . o o o . . M M @ M M ",
"M 7 M M M M M M M M M M O o M O O M M M M M M M M M M M M M M M M M M M M M M M M M M M M M M . o o o . O E U Z U ] ] U e @ M M ",
"M @ M M M M M M M M M O M o o O O O M M M M M M M M M M M M M M M M M M M M M M M M M M M M M M . o o . ] E Z U U U q U K @ M M ",
"@ M M M M M M M M M M O o o o O O O M M M M M M M M M M M M M M M M M M M M M M M M M M M M M . o o o I E U Z U O U q q U @ Z I ",
"I M M M M M M M M M O O o o O O O M M M M M M M M M M M M M M M M M M M M M M M M M M M M M M . o o q q U q q q q o q q q q U U ",
"U M M M M o M M M M O O o o O O M M M M M M M M M M M M M M 0 M M M 0 M M M M M M M M M M M M M . T q q q q q q q . q q A U 9 8 ",
"U 8 M M M M o M M O O O o O O M M M M M M M M M M M M M M M M 0 M 0 M M M 0 M M M M M M M M M M q q q 8 o U U U q 8 8 8 U C U U ",
"U 8 M M M M o o . O O O . O O . M M o M M M M M M M M 0 M 0 M 0 M 0   M 0 M M 0 M M M M M M M U [ ] 8 o U U U U U U U H U C U U ",
"q q M M M M M o O O O O . O O O . M M o M M M M M M M M 0 X X X   X X X M 0 M M 0 M M M M M M q P U U . 8 8 8 8 U U U q S U U U ",
"q q M M M M M o O O O O . . O O O . o o M M M M M M 0 M M   X X M X M X   X 0 0 M M M M M M W J 8 8 8 0 U U q 0 q q U U 0 q q q ",
"= 0 = = = M M o . + w O O . . O O . o M M M M M M M M 0 X X M F M X X 0 F     M M M M M M M ' U U 0 q q 0 U 0 q 0 8 0 U X q 0 q ",
"0 0 = = 0 = = = = = = + O . . O O O R Y 8 M M M M M M 0 M F 0   X X         = = = = = = M r q q 0 8 q 0 q   0 q 0 0 8 0 8 q q 0 ",
"G X = 0 = = = = = = = = = O . O O q q q 8 M M M M M M M X                 = = = = = = = = = = 0 0 8   0 8     q q 0 q 0 q 0 0 L ",
"G X G X 0 0 G G G G G = = = = = = = = = = = = = M M M = = = = = = = = = = = G = = = = = = = = = = 0 = X G 6 X # D X   X q 0 X   ",
"X X   X G G G G > G G G * = = = G G G G G 5 = = = = = = = = = = = = = = % G G G G G G = = 0 G G X 0   X X X X G   X = X X X   X ",
"X     G G G G G G G G G G = = = 4 G $ = G G G G G G G G G G G ; G G G G G G G G G G * = = = 0 G G X X X = X G X X X = X X G   X ",
"X F G G 0 G G G G G G G G G = = & G G = = G G G G G G G 3 G G G G G G G G > G G G G G = = 0 0 X G   G X X X X X G X X X X G   F ",
"  X G X G 0 0 G G G G G G G G G = = % = G G G G ; G G G G : G G G G G G G G 1 ; G G 0 0 G G G X X   G X   X X X F   X   X X     ",
"    X F F G G G G G < G G G G G G G G G G G G G G G G G G G G G G G G G G G G G G G G G 0 X G   X X X X   X     F F   X X   X   ",
"    X G G G 0 G G G G G G G G G G G G G G G G G G G G G G G G G G G G G G G G G G G G G X F X X     X F X X   X   0   X G X     ",
"  X G X X 0 G G G G G G G G G : G G G G , G G G G G G G G G G - : G G G G G G G G G G 0 G 0 G X X   X 0   X G X   X     X X     ",
"  X       G G G G G G G G > G G G G G G G 2 G G G G G G G G G G G G G : G G G G G G G G G G G     X X         X   X             ",
"X X   G G 0 G G G G G G G G G G G G G G G G G G G G G G G G G G G G G G G G G G G G G G G G   X X                   X   X       "
};
