/* XPM */
static char *_6c2ac07640c46cbff80e5ad4ad5dfb2yem167lZ40pVcAFV[] = {
/* columns rows colors chars-per-pixel */
"64 64 132 2 ",
"   c #160C09",
".  c #7E261C",
"X  c #7E3C1C",
"o  c #002D48",
"O  c #005052",
"+  c #005A53",
"@  c #125553",
"#  c #155854",
"$  c #1D5D55",
"%  c #356957",
"&  c #DF703C",
"*  c #B6654A",
"=  c #B7694B",
"-  c #B86C4B",
";  c #B26C52",
":  c #2D9D53",
">  c #2B9D59",
",  c #339C54",
"<  c #3A9B55",
"1  c #2FA054",
"2  c #32A454",
"3  c #36A955",
"4  c #34A55C",
"5  c #32A263",
"6  c #36A666",
"7  c #449A57",
"8  c #DF943C",
"9  c #C08E5D",
"0  c #C1915F",
"q  c #C29360",
"w  c #2067BE",
"e  c #2068BF",
"r  c #1F72C6",
"t  c #1F76C9",
"y  c #1F7DCC",
"u  c #2067C0",
"i  c #206CC2",
"p  c #2073C6",
"a  c #2076C8",
"s  c #207BCB",
"d  c #319688",
"f  c #1F83CE",
"g  c #1F86D0",
"h  c #1F8CD3",
"j  c #1F91D6",
"k  c #1E96DA",
"l  c #1E9CDC",
"z  c #2081CF",
"x  c #2087D0",
"c  c #208CD3",
"v  c #1EA2DF",
"b  c #1EA5E1",
"n  c #1DACE4",
"m  c #1DB1E7",
"M  c #1DB4E9",
"N  c #1CBBEC",
"B  c #1BC1EF",
"V  c #1BC5F1",
"C  c #17CFF6",
"Z  c #1ACBF4",
"A  c #17D1F7",
"S  c #1BD1F7",
"D  c #16D5F9",
"F  c #1CD4F9",
"G  c #16DBFB",
"H  c #1BDBFC",
"J  c #20D5FA",
"K  c #22DCFD",
"L  c #17E2FE",
"P  c #1CE4FE",
"I  c #24E4FF",
"U  c #2AE4FF",
"Y  c #22E8FF",
"T  c #2CEAFF",
"R  c #31E7FF",
"E  c #34EBFF",
"W  c #3CEDFF",
"Q  c #41EDFF",
"!  c #42EEFF",
"~  c #43EEFF",
"^  c #45EDFF",
"/  c #44EFFF",
"(  c #45EFFF",
")  c #49EFFF",
"_  c #4BEEFF",
"`  c #4AEFFF",
"'  c #4AF0FF",
"]  c #4EF0FF",
"[  c #4FF0FF",
"{  c #50F0FF",
"}  c #53F0FF",
"|  c #53F1FF",
" . c #54F0FF",
".. c #57F1FF",
"X. c #59F0FF",
"o. c #58F1FF",
"O. c #5AF1FF",
"+. c #5EF1FF",
"@. c #5DF2FF",
"#. c #5FF2FF",
"$. c #60F1FF",
"%. c #60F2FF",
"&. c #63F2FF",
"*. c #64F2FF",
"=. c #67F2FF",
"-. c #69F3FF",
";. c #6AF3FF",
":. c #6DF3FF",
">. c #6FF3FF",
",. c #6EF4FF",
"<. c #70F3FF",
"1. c #72F3FF",
"2. c #74F3FF",
"3. c #75F3FF",
"4. c #72F4FF",
"5. c #75F4FF",
"6. c #77F4FF",
"7. c #78F3FF",
"8. c #78F4FF",
"9. c #7BF4FF",
"0. c #7CF4FF",
"q. c #7EF4FF",
"w. c #E8C9BA",
"e. c #E8D3BA",
"r. c #80F4FF",
"t. c #81F4FF",
"y. c #85F4FF",
"u. c #87F4FF",
"i. c #8AF4FF",
"p. c #8CF4FF",
"a. c #8EF4FF",
"s. c #8FF4FF",
/* pixels */
"a.a.a.a.i.a.i.i.i.i.i.i.a.i.i.a.i.i.i.i.i.i.i.i.a.a.i.a.a.i.a.i.a.i.i.a.i.i.a.s.a.a.a.a.a.a.s.s.s.s.s.s.s.s.s.s.s.s.s.s.s.s.s.s.",
"a.a.i.i.a.i.i.a.i.a.i.i.i.i.i.i.i.i.i.i.i.i.i.i.i.i.i.i.i.a.i.a.i.a.a.i.a.a.a.a.a.a.a.a.s.s.s.s.s.s.s.s.s.s.s.s.s.s.s.s.s.s.s.s.",
"i.i.a.i.i.i.i.i.i.i.i.i.i.i.i.i.i.i.i.i.i.i.i.i.i.i.i.i.i.i.i.i.a.i.a.i.a.i.i.a.a.i.a.i.a.a.a.a.a.s.s.s.s.s.s.s.s.s.s.s.s.s.a.a.",
"i.i.i.i.u.i.i.u.i.u.u.i.u.u.u.u.u.u.u.u.u.i.u.r.u.i.u.i.r.i.i.i.i.i.i.i.i.i.i.a.i.a.i.a.a.a.i.a.a.a.a.a.s.s.s.a.s.s.s.s.s.a.a.i.",
"u.u.u.u.u.u.i.u.u.u.u.u.u.u.u.u.u.r.u.u.u.u.u.u.r.r.u.u.r.u.u.u.u.u.i.u.u.i.u.i.r.i.i.i.i.a.i.a.a.i.i.i.a.i.a.i.a.i.i.a.a.a.i.a.",
"u.u.u.u.u.r.r.u.r.u.r.r.r.r.r.r.u.r.r.r.q.r.q.q.r.r.r.q.r.r.r.r.q.r.q.u.r.r.r.r.u.u.r.u.u.r.u.i.i.i.i.i.i.a.i.i.i.i.a.i.a.i.i.i.",
"q.r.r.r.r.r.r.r.r.r.q.q.q.q.q.q.q.9.9.9.6.q.9.q.q.q.9.q.q.q.9.q.9.q.9.9.9.r.q.r.r.r.r.r.r.r.q.r.u.u.r.u.u.u.u.i.i.i.i.i.i.i.i.u.",
"9.q.q.9.9.9.9.9.9.9.9.6.9.6.9.9.6.6.9.9.6.6.9.9.9.3.7.3.7.7.3.7.3.6.9.9.9.9.6.9.6.9.q.6.9.q.q.q.9.q.r.q.q.r.q.r.r.r.q.u.u.r.u.q.",
"6.9.6.9.6.6.6.6.3.3.3.3.3.3.3.3.<.6.6.3.3.3.3.<.<.6.6.<.<.6.6.<.3.<.3.3.3.3.3.3.3.3.3.3.3.7.7.7.9.6.9.9.7.r.q.q.q.r.r.r.r.r.r.q.",
"<.<.<.<.<.<.<.<.<.<.<.:.<.<.<.:.,.<.,.:.:.:.:.,.<.<.,.,.,.,.,.,.<.3.<.<.<.<.<.3.<.<.<.<.3.<.<.3.<.6.6.3.3.7.<.3.6.9.6.9.9.q.9.6.",
",.,.;.:.,.,.-.,.;.;.:.;.;.;.;.;.-.-.-.-.;.;.;.;.-.-.-.-.-.,.,.,.=.;.;.:.,.;.-.,.;.:.<.<.:.:.:.<.<.3.<.<.<.3.<.3.<.<.6.6.<.6.6.6.",
"=.;.=.;.=.;.-.-.=.=.=.=.=.&.=.=.-.%.-.-.=.&.&.&.%.-.-.%.%.-.%.-.&.&.=.=.&.&.=.=.=.&.;.=.;.;.=.;.;.;.:.;.;.:.<.:.<.<.<.:.<.<.,.,.",
"&.&.+.-.&.&.+.&.&.+.&.+.+.+.+.&.%.#.#.#.#.%.#.#.#.#.#.o.#.#.#.%.+.&.+.+.%.#.+.&.&.&.&.&.&.+.&.&.&.=.&.&.&.&.;.&.-.%.%.-.;.&.-.=.",
"+.+.+.+.+.+.+.O.O.+.O.+.O.O.O.O.o.o.o.o.o.o.o.o.o.o.o.o.o.o. .o. . .O.O. .O. .O.O. .O.O.+. .O.+.+.O.+.+.+.&.+.&.&.-.%.-.&.+.O.&.",
" .O.{ +.O.O. .O.{ O.O. . . . . .{ o.o.{ { o. . . .| o.| { {  .{  .{  .{  .{  . . .{  .{ { {  .{ {  .{ O. .O.O.{  .O.o.o.O. .O. .",
"{ { { [ { { { { { {  .{ { { { { [ [ | [ [ [ [ [ [ [ [ [ [ [ [ [ { { [ [ [ [ [ { { [ [  . .[  .[  .{ { { _ }  . . .{ [ {  .{ [ [ ",
"' ' ' ' ' ' ' ` / ' ' ' ' ' ' ' ' ' ' ' ' [ ' ' ' ' ' ' ' ' ' ' ' ' ' ' ' ' ' ' ' ' ' ' ' ' ' ' ' ` ` ` ` ` ` ` ` _ _ _ _ _ _ ^ ",
"! / W ! ! ! ! ^ ! ^ / / / / / / / / / / / / / ! / ^ / / / / / / / / / / / / / / / / / / / / ^ W ! ! ! ! ^ ! Q ^ ^ ^ Q Q Q Q Q Q ",
"W W W W W W W W W W W W W W W W W W W W W W W W W W W W W W W W W W W W W W W W W / W / W W W W W W W W ! W W W Q Q Q Q Q W E W ",
"E E E E E E E E E E E E E . . E . . E E E E E E E E E E E E E E E E E E E E E E E E E E E E E E E T E E E E E W R E R W R E R R ",
"T T T T T T T T T T T T . . & & w.e.& & T T T T T T T T T T T T T T T T T T T T T T T T T T T T I T T T T T T R R R R R R R R R ",
"I T I Y I Y Y U P . . Y w.w.& w.w.&   & & T T Y Y Y Y Y Y Y P P Y Y Y Y Y Y Y Y Y Y Y Y Y I P Y P Y Y I I U U U U R U U K R U U ",
"I I I I I P I I L . & & w.& & w.. & & & & P P P P P P P P P L L Y P Y L P P P P P P P P P P P P P I I I U I U U K U U U U I I I ",
"P P H P P P P P L . & & w.& & w.. w.& & L L L L L L L L L L L L L L L L L L L L L L L L P H P P P P P K H U K K U K K U K U K I ",
"G P G P L G L G L . . L . . & w.w.w.L G G G G L L G L G G L L L L L L L G L L G L L G L G L H P H H K K K K J J K K K K K K U K ",
"G H G G G G G G G G G G G . . G . . G G G G G G G G G G G G G G G L H G G G G H G H G H H H H H K K K K K K K R K K K K K K K K ",
"G G G D G D G D G D G G G D D D D D G G D G D D G G G G D D G D G G D D D G D G G G H F G F H H H F J J J J J J K J K J K H K H ",
"D D D D D D D D G D D A D D D D D D D D D D D D D D D D D D D A D D D D S D F F S S F J F F F F K F J J J J J J J J J J J K F F ",
"D D D D D D C D C D A A A A C C D D D C D C C D A A A A A C C A S A A F F F A A Z J Z J Z J V J S S S J J J V J V J J J J J J F ",
"A A C C C C C C C C C C A C C C C A C C C C C C C C C C C C C C Z A Z Z Z Z Z Z Z J Z Z Z V J J Z S Z Z J J J V J J V J Z Z Z S ",
"S C Z Z C Z Z C Z C Z C C V C C C C C V C C C C C C C C C C C C Z Z Z Z Z Z Z Z V Z J V V Z J V V V V Z J V J V V V J V Z Z Z Z ",
"Z Z Z Z Z Z Z V Z Z Z B Z Z B C Z B B Z V V B V B B B B B B B B Z B B B Z B B B V V N V V V V V V V V V N V N V V V V V V V V Z ",
"C B C B C B C B C B B B B B B B B B B B N C B B B V B B B X X B X X B B N B B B B B N N B N N N V N V N N N N N ` n N V N N N J ",
"B B N B N B N B N B B B B B B N B B N N N N N N N N N N X X 8 8 e.e.8 8 N N M M M N N N N N M N N M M N N N N N M n N N N N N M ",
"M N B N M N M N N M N N N N N N N N N N N N N N N X X N e.e.8 e.e.8   8 8 M M M m M M M M M M M M M M M M M M M M M M M M M M M ",
"M M M N M M M M M M M M M M M m M m M M M m m m M X 8 8 e.8 8 e.X 8 8 8 8 m m m m m m m n n n m n n n n n n n n n n n n m n m n ",
"M m m m m m m m M m m m m m m m m m m n m m n m n X 8 8 e.8 8 e.X e.8 8 n n n v n v b b n n v n b b b b b b b b b b b b b b b n ",
"m n n n n m v n n n n v n n v n n b n n b n b b b X X n X X 8 e.e.e.b v v v v v n v v v l v v v b b v v v v v v v v v v b b b b ",
"b n b v v v v v v v v v b v v b v v l v v v v v v l v v v X X v X X v l l v l l l l l l l l l l l l l l l l l l l l l l l l l l ",
"l l l l l v v l l l l l l l l l l l l l l l l l l l l l l l k k l l k k k k k k k k k k k k k l k k k k j j k k l c k k k k k k ",
"k k j k k k k k k k k k l k k k k k k k k k k k k k k k k k k k j k k j k j j j j j j j k c k c c k k c c k k c c c c c c k c k ",
"j h j j j j j j j j j j j j j j j j j j j j j j j h h j h h h h c c h h h h c j c j c c h h h j c c c c c c c c c c c c c c c c ",
"h h g h h h h h h h h h h h h h h h h h h h g h g h h h h h h h h h h h h h h h h h h h f h h h c c c x c c x x c c x x x x c c ",
"f f f f f f g f g g g g g g h h g g h g g g g g g g g g g f f h f f g f f f f f f f f f f f f f z z x z z s z z z z z z z z z z ",
"f y y f y y y f f f f f f f f f f f f f f f f f g y g f z z z s f f y f f y y y f y f y f y y f s s s z z s z s s z s z z z z s ",
"t y y y y y y y f f t f f y y y y f y y f y y y y y y t s s s s y y s s y y y y y t y t y a s a s s s s s a a a a s p p a a s a ",
"t t t t t t y y t t t t y y y y y y y y t y t t s a a a a a a a p a a a a a p a a a a a p a a a a a a p a a p a p p p p p p p a ",
"t t r r t r r r t t t r r r r r r r r t r r t t p p p p p p p 4 5 p i p i p i p p e p i p e p e p i i i i i i i i i i i p p p p ",
"r t i r r i r r i r r r i p r i r p p p p i r r r r i p r 5 3 4 p i i i p i i i i i i i i i u u u i u i e e e i e < > i i p i p ",
"i i i i r i i i i i i i e i i e i i e e 5 e u i u i i i 2 6 i i u i i u u u i u i u i u u i u u u u u u w w e e e i u > u i i i ",
"i i i i i e i i i e O e i 1 e e u i u e 4 4 e u e u u e 3 d + w u u u u u u u u u u w w u u w w w e u u w w w w O e w , i u i i ",
"i i i i i i e e e + e e + e i e e e e e + 4 3 e u u u 3 3 + + w u u w w u u w w w e w e e e w w w e e e w w w w e w w O u u u i ",
"i i w e e e e e w O w O O w e w e e e e u + 4 5 e e + 2 1 + w u e w w w w w w w w w w w w w w w w w w w w w w w O w w O e w e u ",
"; ; * ; e e e w = = = = w w e e e e u u w + 5 4 u u + 1 1 : O w e e w - * - - * - - - * - - * - - - - * - * w w O O O w e = = = ",
"; = ; * ; ; * = = = = = = = - - - - - - - + , , u w O : : : O = - * - * * @ - * - * * - * * - * - - * - - * - - = = O = * - = * ",
"= = ; ; = = * = = = = = = = = = q O O q O O 2 - - = O 1 : : O = * - * - O q q q q q q > 0 q q q q q q q q q * q = = * - = = = - ",
"- ; ; - - q q q 0 0 q q q 0 0 0 q O O O O , , : q O O O : : : O - * = 0 O q = 0 q - O 0 9 O q q q q q q 0 0 q q 0 9 - - - - = * ",
"- 0 0 q 0 q q q 0 0 q q q q 0 0 q q q O O < : : q 0 O O : : : : 0 , , O O 0 q q q O O 0 9 O O q q q q q 0 q q q 0 0 0 0 - 0 = - ",
"0 0 q q 0 q q q 0 0 0 0 - 0 q % 7 , 9 o O , : : q q O o : : : : 0 O < 0 O O 0 0 q O O q 0 O O q q q q q 0 0 q q 0 0 0 q q 0 0 = ",
"0 0 q q q q q q 0 0 0 0 0 0 0 $ q 7 : o O , , : o q O o : : : < q O , 2 O O q q q q O q O O 0 q q q q q q q q q 0 0 q q 0 0 0 0 ",
"- 0 0 q q q q q q q q q q q - 0 @ q : : o O < , , o O o : : : , 0 O : < O O q q q q q q - q q q q q q q q q q q 0 - q 0 q q q q ",
"0 0 q q q q q q q q q q q q 0 0 q @ < : O O O , : o o o : : : , O , : o O O q q q q q q 0 q q q q q q q q q q q - q q - q q 0 - ",
"0 - q q q q q q q q q q q 0 q q o $ @ , : < O : : , o o : : : < : : o O O O q q q q * - q q q q q q q q q q q q 0 q q q q q q q ",
"q q q q q q q q q q q q q q q q o o # : : : O , < , o o : : < < : o o O q q q q q q 0 q q q q q q q q q q q q q q q q q q q q q "
};
